<?xml version="1.0" standalone="no"?>
<svg viewBox="0 0 200 200" xmlns="http://www.w3.org/2000/svg">
  <path fill="#DA0037" d="M35.7,-62.1C47.3,-55.1,58.4,-47.6,64.6,-37.2C70.9,-26.7,72.4,-13.4,73.1,0.4C73.8,14.2,73.8,28.4,68.8,41C63.7,53.6,53.7,64.7,41.5,74.2C29.2,83.7,14.6,91.6,1.4,89.2C-11.8,86.8,-23.6,74.1,-36,64.7C-48.4,55.2,-61.4,49.1,-67.5,38.8C-73.7,28.6,-73,14.3,-69.6,1.9C-66.3,-10.4,-60.3,-20.9,-56.1,-34.5C-51.9,-48.1,-49.5,-64.9,-40.5,-73.3C-31.4,-81.8,-15.7,-81.9,-1.8,-78.7C12.1,-75.5,24.1,-69.1,35.7,-62.1Z" transform="translate(100 100)" />
</svg>
