<svg version="1.1" id="Capa_1" xmlns="http://www.w3.org/2000/svg" xmlns:xlink="http://www.w3.org/1999/xlink" x="0px" y="0px" viewBox="0 0 1200 1200" enable-background="new 0 0 1200 1200" xml:space="preserve">
<g>
	<path fill="#011A38" d="M829.017,92.62c-33.945-19.791-79.059-33.983-138.274-39.744C674.549,51.039,658.11,50,641.424,50&#10;&#9;&#9;c-1.492,0-2.96,0.097-4.447,0.113c-2.681-0.03-5.275-0.113-8.002-0.113c-380.667,0-439.814,273.685-448.968,353.51&#10;&#9;&#9;c-4.281,37.31-54.642,368.767-54.642,368.767H256.49v263.649h263.648L519.473,1150h341.597V856.569&#10;&#9;&#9;c127.778-75.335,213.564-214.293,213.564-373.36C1074.635,311.16,974.336,162.539,829.017,92.62z M716.919,586.195v-78.322&#10;&#9;&#9;l169.877-80.441l-169.877-78.335v-0.041l-29.364-13.541L573.826,583.83l-16.303,35.812l-63.61-30.778L259.025,478.187v-72.508&#10;&#9;&#9;l257.203-121.191v78.322L346.34,443.252l145.503,67.09l54.056,24.18l99.753-218.329l35.491,16.366l-35.674-16.451l29.645-64.379&#10;&#9;&#9;l41.526,19.67h0.279v-0.095L974.11,392.496v72.507L716.919,586.195z" style="fill: rgb(237, 237, 237);"/>
	<polygon fill="#011A38" points="716.827,271.487 771.209,297.247 716.919,271.531 716.919,271.399 716.868,271.508 &#9;" style="fill: rgb(237, 237, 237);"/>
	<polygon fill="#FF7526" points="716.919,271.304 716.919,271.399 716.919,271.531 771.209,297.247 886.315,427.169 &#10;&#9;&#9;716.919,349.056 716.919,349.097 886.795,427.432 716.919,507.873 716.919,586.195 974.11,465.003 974.11,392.496 &#9;" style="fill: rgb(218, 0, 55);"/>
	<polygon fill="#FF7526" points="716.868,271.508 716.919,271.399 716.64,271.399 716.827,271.487 &#9;" style="fill: rgb(218, 0, 55);"/>
	<polygon fill="#FFFFFF" points="476.606,503.526 491.843,510.341 346.34,443.252 516.229,362.81 516.229,284.488 259.025,405.679 &#10;&#9;&#9;259.025,478.187 493.913,588.864 408.227,547.403 &#9;" style="fill: rgb(23, 23, 23);"/>
	<polygon fill="#FFFFFF" points="771.209,297.247 716.827,271.487 716.64,271.399 675.114,251.729 645.469,316.108 681.143,332.559 &#10;&#9;&#9;687.554,335.515 687.554,335.515 716.919,349.056 886.315,427.169 &#9;" style="fill: rgb(23, 23, 23);"/>
	<polygon fill="#FF7526" points="681.143,332.559 645.651,316.193 545.899,534.522 491.843,510.341 476.606,503.526 &#10;&#9;&#9;408.227,547.403 493.913,588.864 557.523,619.642 573.826,583.83 687.554,335.515 687.554,335.515 &#9;" style="fill: rgb(218, 0, 55);"/>
</g>
</svg>